Coordinates
version=1
nRows=4
nColumns=107
inDegrees=yes

Units are S.I. units (second, meters, Newtons, ...)
If the header above contains a line with 'inDegrees', this indicates whether rotational values are in degrees (yes) or radians (no).

endheader
time	sternoclavicular_r2	sternoclavicular_r3	unrotscap_r3	unrotscap_r2	acromioclavicular_r2	acromioclavicular_r3	acromioclavicular_r1	unrothum_r1	unrothum_r3	unrothum_r2	elv_angle	shoulder_elv	shoulder1_r2	shoulder_rot	elbow_flexion	pro_sup	deviation	flexion	proximal_distal_r1	proximal_distal_r3	cmc_flexion	cmc_abduction	mp_flexion	ip_flexion	mcp2_flexion	mcp2_abduction	pm2_flexion	md2_flexion	mcp3_flexion	mcp3_abduction	pm3_flexion	md3_flexion	mcp4_flexion	mcp4_abduction	pm4_flexion	md4_flexion	mcp5_flexion	mcp5_abduction	pm5_flexion	md5_flexion	bicpt_tx	bicpt_ty	bicpt_tz	bicpt2_tx	bicpt2_ty	bicpt2_tz	ptpt_tx	ptpt_ty	ptpt_tz	FCUpt_tx	FCUpt_ty	FCUpt_tz	EDCpt_tx	EDCpt_ty	EDCpt_tz	APLpt_tx	APLpt_ty	APLpt_tz	FPLpt_tx	FPLpt_ty	FPLpt_tz	FPLpt2_tx	FPLpt2_ty	FPLpt2_tz	PEC1pt2_tx	PEC1pt2_ty	PEC1pt2_tz	PEC1pt3_tx	PEC1pt3_ty	PEC1pt3_tz	PEC2pt2_tx	PEC2pt2_ty	PEC2pt2_tz	PEC2pt3_tx	PEC2pt3_ty	PEC2pt3_tz	PEC3pt2_tx	PEC3pt2_ty	PEC3pt2_tz	PEC3pt3_tx	PEC3pt3_ty	PEC3pt3_tz	DELT2pt2a_tx	DELT2pt2a_ty	DELT2pt2a_tz	DELT2pt2_tx	DELT2pt2_ty	DELT2pt2_tz	LAT1pt2_tx	LAT1pt2_ty	LAT1pt2_tz	LAT1pt3_tx	LAT1pt3_ty	LAT1pt3_tz	LAT2pt2_tx	LAT2pt2_ty	LAT2pt2_tz	LAT2pt3_tx	LAT2pt3_ty	LAT2pt3_tz	LAT3pt2_tx	LAT3pt2_ty	LAT3pt2_tz	LAT3pt3_tx	LAT3pt3_ty	LAT3pt3_tz
      1.23333333	     -0.32551070	      0.13787097	     -0.13787097	      0.32551070	     -0.06590929	      0.53265573	      0.23942509	     -0.23942509	     -0.53265573	      0.06590929	     99.04733503	     77.06755066	     -1.72870211	    -22.18807783	     29.76833248	     65.36792804	      0.26811001	     -0.42624327	      0.30502630	     -0.21312163	     34.11905887	    -20.92103222	      7.37995049	      7.62196146	     -9.80007076	     10.74472726	     13.14805109	    -26.33472551	    -11.98567429	      1.73704464	      7.45422646	      9.72503864	    -11.74827947	     -0.82298458	     -2.40362379	     19.65819449	    -24.30831838	    -13.21328639	     15.14038155	      5.16631088	      0.00088464	     -0.03101191	     -0.00484957	      0.01588568	     -0.01828671	     -0.00431082	      0.00272005	     -0.06802313	     -0.00531574	      0.01043356	     -0.18287598	     -0.00032419	     -0.00784413	      0.00251149	     -0.00021008	      0.00028396	      0.00011358	      0.00056791	      0.00036346	      0.00109039	      0.00061334	     -0.00001240	     -0.00020625	     -0.00024750	      0.00252611	      0.00886278	      0.00616541	     -0.00826336	      0.01995195	     -0.01892438	      0.00252611	      0.00886278	      0.00616541	      0.00055660	      0.01849623	     -0.00971908	      0.00398188	      0.00492848	      0.01605002	      0.00000000	      0.00794448	      0.00000000	     -0.00723579	     -0.03343878	     -0.00655149	      0.01500687	     -0.00050007	     -0.00409494	     -0.00089912	      0.01507100	     -0.00616541	      0.00248329	      0.02175019	     -0.01798244	     -0.00603696	      0.01305868	     -0.00552318	     -0.01258771	      0.02757308	     -0.03086986	     -0.02363407	      0.01460003	     -0.00740705	     -0.01567042	      0.03185461	     -0.03857662
      1.26666667	     -0.31991380	      0.13550038	     -0.13550038	      0.31991380	     -0.06477604	      0.52349714	      0.23530836	     -0.23530836	     -0.52349714	      0.06477604	    100.23096199	     75.74243469	     -1.74936030	    -28.52823671	     30.37606553	     72.03250132	      0.24927001	     -0.43526278	      0.28743615	     -0.21763139	     34.09295544	    -20.37555901	      6.74768887	      7.08528691	    -10.22628854	     11.01544617	     14.11545186	    -24.04608884	    -11.69831757	      1.96419278	      8.32107588	     10.31954645	    -12.10219041	     -0.39599156	     -0.38395103	     19.22757027	    -21.60150031	    -13.47840973	     13.99170547	      5.16138598	      0.00090475	     -0.03108156	     -0.00486079	      0.01546056	     -0.01845181	     -0.00333119	      0.00222761	     -0.06834154	     -0.00585260	      0.01116357	     -0.18268304	     -0.00022745	     -0.00864388	      0.00284163	     -0.00036159	      0.00028670	      0.00011468	      0.00057339	      0.00036697	      0.00110091	      0.00061926	     -0.00001239	     -0.00020659	     -0.00024790	      0.00248267	      0.00871039	      0.00605940	     -0.00812128	      0.01960889	     -0.01859899	      0.00248267	      0.00871039	      0.00605940	      0.00054703	      0.01817820	     -0.00955197	      0.00393184	      0.00484374	      0.01592814	      0.00000000	      0.00767175	      0.00000000	     -0.00711138	     -0.03286383	     -0.00632509	      0.01821111	     -0.00070718	     -0.00679553	     -0.00088366	      0.01481187	     -0.00605940	      0.00244059	      0.02137622	     -0.01767325	     -0.00593316	      0.01283415	     -0.00542821	     -0.01237127	      0.02709898	     -0.03033908	     -0.02322770	      0.01434900	     -0.00727970	     -0.01540097	      0.03130690	     -0.03791333
      1.30000000	     -0.32406013	      0.13725658	     -0.13725658	      0.32406013	     -0.06561559	      0.53028208	      0.23835815	     -0.23835815	     -0.53028208	      0.06561559	     99.23220829	     76.72411730	     -1.73192876	    -23.53737522	     30.19080957	     68.13723302	      0.30419162	     -0.35909693	      0.33709230	     -0.17954846	     33.35091518	    -19.47254090	      6.02678079	      6.69377014	     -9.99952731	     10.99728308	     14.37691407	    -22.71693250	    -11.44443047	      1.52401716	      9.18427066	     10.86810683	    -12.70505986	     -0.30586134	      0.09180538	     18.98863660	    -20.13356686	    -13.64313594	     13.36675679	      5.14066116	      0.00089862	     -0.03106033	     -0.00485737	      0.01572136	     -0.01840148	     -0.00391131	      0.00251543	     -0.06815544	     -0.00553882	      0.01073523	     -0.18279734	     -0.00028805	     -0.00817645	      0.00264701	     -0.00027012	      0.00025942	      0.00010377	      0.00051883	      0.00033205	      0.00099616	      0.00056034	     -0.00001197	     -0.00021584	     -0.00025901	      0.00251485	      0.00882328	      0.00613793	     -0.00822654	      0.01986304	     -0.01884005	      0.00251485	      0.00882328	      0.00613793	      0.00055412	      0.01841380	     -0.00967577	      0.00396897	      0.00490651	      0.01601883	      0.00000000	      0.00787332	      0.00000000	     -0.00720355	     -0.03328977	     -0.00649243	      0.01573382	     -0.00054299	     -0.00462231	     -0.00089512	      0.01500384	     -0.00613793	      0.00247222	      0.02165327	     -0.01790231	     -0.00601006	      0.01300049	     -0.00549857	     -0.01253162	      0.02745021	     -0.03073230	     -0.02352875	      0.01453497	     -0.00737405	     -0.01560058	      0.03171266	     -0.03840472
      1.33333333	     -0.31923021	      0.13521085	     -0.13521085	      0.31923021	     -0.06463762	      0.52237854	      0.23480556	     -0.23480556	     -0.52237854	      0.06463762	    100.24755942	     75.58058922	     -1.74964998	    -28.99423601	     30.80837357	     74.36154911	      0.29429130	     -0.34520094	      0.32850680	     -0.17260047	     33.68380573	    -19.54391470	      5.93397313	      6.93468786	    -11.21317299	     11.13401421	     15.25768909	    -19.24731752	    -11.53386351	      2.05693761	      9.70525113	     11.44970464	    -12.25040495	     -0.26310737	      2.03361571	     18.86520429	    -18.15523676	    -13.66845668	     11.92837631	      5.19170831	      0.00091905	     -0.03113111	     -0.00486877	      0.01528801	     -0.01856925	     -0.00297414	      0.00205552	     -0.06845282	     -0.00604022	      0.01142192	     -0.18261263	     -0.00018576	     -0.00892337	      0.00296024	     -0.00042022	      0.00025340	      0.00010136	      0.00050679	      0.00032435	      0.00097304	      0.00054734	     -0.00001218	     -0.00021178	     -0.00025413	      0.00247737	      0.00869178	      0.00604645	     -0.00810393	      0.01956699	     -0.01855925	      0.00247737	      0.00869178	      0.00604645	      0.00054586	      0.01813936	     -0.00953156	      0.00392568	      0.00483339	      0.01591297	      0.00000000	      0.00763877	      0.00000000	     -0.00709618	     -0.03279361	     -0.00629772	      0.01842540	     -0.00072291	     -0.00701530	     -0.00088177	      0.01478022	     -0.00604645	      0.00243538	      0.02133054	     -0.01763549	     -0.00592048	      0.01280672	     -0.00541661	     -0.01234484	      0.02704108	     -0.03027425	     -0.02317807	      0.01431833	     -0.00726414	     -0.01536807	      0.03124000	     -0.03783232
